# xmcd
#
# Track frame offsets:
#	179
#	2867
#	5223
#	6894
#	11044
#	13256
#	15301
#	19742
#	22786
#	27875
#	39963
#	43327
#	51803
#	58595
#	60310
#	70872
#	73993
#	91093
#	93987
#	96549
#	99397
#	104402
#	107076
#	115889
#	118445
#	121277
#	124462
#	128851
#	146191
#	154765
#	162862
#	169246
#	170867
#	171802
#	173031
#	179174
#	190243
#	192686
#
# Disc length: 2760 seconds
# Revision: 1
# Processed by: cddbd v1.5.2PL0 Copyright (c) Steve Scherf et al.
# Submitted via: dBpowerAMP V12.0
#
DISCID=1e0ac626
DTITLE=Johnny Cash - Complete Columbia Album Collection, Disc 33 [Gospel Road 2]
DYEAR=1973
DGENRE=Country
TTITLE0=Crossing the Sea of Galilee
TTITLE1=He Turned the Water into Wine (Part 2)
TTITLE2=He Turned the Water into Wine (Part 3)
TTITLE3=Feeding the Multitude
TTITLE4=He Turned the Water into Wine (Part 4)
TTITLE5=More Jesus Teaching
TTITLE6=The Living Water and the Bread of Life
TTITLE7=Gospel Road (Part 4)
TTITLE8=Jesus and Children
TTITLE9=Children
TTITLE10=Four Months to Live
TTITLE11=Help (Part 3)
TTITLE12=Help (Part 4)
TTITLE13=Raising of Lazarus
TTITLE14=Jesus' Second Coming
TTITLE15=Jesus' Entry into Jerusalem
TTITLE16=Burden of Freedom
TTITLE17=Jesus Wept
TTITLE18=Burden of Freedom (Chorus)
TTITLE19=Jesus Cleanses Temple Again
TTITLE20=Feast of the Passover
TTITLE21=Lord, Is It I?
TTITLE22=The Last Supper
TTITLE23=John 14:1-3
TTITLE24=And Now He's Alone
TTITLE25=Agony in Gethsemane
TTITLE26=Jesus Before Caiaphas, Pilate and Herod
TTITLE27=Burden of Freedom
TTITLE28=Crucifixion
TTITLE29=Jesus' Last Words
TTITLE30=Jesus' Death
TTITLE31=Earthquake and Darkness
TTITLE32=He is Risen
TTITLE33=Mary Magdalene Returns to Galilee
TTITLE34=Jesus Appears to Disciples
TTITLE35=The Great Commission
TTITLE36=Ascension, Amen Chorus
TTITLE37=Jesus Was a Carpenter (Part 2)
EXTD=
EXTT0=
EXTT1=
EXTT2=
EXTT3=
EXTT4=
EXTT5=
EXTT6=
EXTT7=
EXTT8=
EXTT9=
EXTT10=
EXTT11=
EXTT12=
EXTT13=
EXTT14=
EXTT15=
EXTT16=
EXTT17=
EXTT18=
EXTT19=
EXTT20=
EXTT21=
EXTT22=
EXTT23=
EXTT24=
EXTT25=
EXTT26=
EXTT27=
EXTT28=
EXTT29=
EXTT30=
EXTT31=
EXTT32=
EXTT33=
EXTT34=
EXTT35=
EXTT36=
EXTT37=
PLAYORDER=
